Coordinates
version=1
nRows=11
nColumns=40
inDegrees=yes

Units are S.I. units (second, meters, Newtons, ...)
Angles are in degrees.

endheader
time	pelvis_tilt	pelvis_list	pelvis_rotation	pelvis_tx	pelvis_ty	pelvis_tz	hip_flexion_r	hip_adduction_r	hip_rotation_r	knee_angle_r	knee_angle_r_beta	ankle_angle_r	subtalar_angle_r	mtp_angle_r	hip_flexion_l	hip_adduction_l	hip_rotation_l	knee_angle_l	knee_angle_l_beta	ankle_angle_l	subtalar_angle_l	mtp_angle_l	lumbar_extension	lumbar_bending	lumbar_rotation	arm_flex_r	arm_add_r	arm_rot_r	elbow_flex_r	pro_sup_r	wrist_flex_r	wrist_dev_r	arm_flex_l	arm_add_l	arm_rot_l	elbow_flex_l	pro_sup_l	wrist_flex_l	wrist_dev_l
      0.62000000	     -0.60273022	      2.75241470	      2.57315520	     -0.46003012	      0.94359071	      1.51739781	     -8.75553906	     -4.91175452	    -21.86152047	    -15.46553744	     -0.26992455	     11.01899602	      3.70456738	    -13.74613352	     23.40152577	      3.32691466	     20.83397892	     -8.07865572	     -0.14099914	     -2.86770862	     -1.98001035	      5.98963469	     -6.47101561	     -4.05120596	      6.81447073	     13.66681513	    -15.02398801	    -16.67104624	     25.88587458	     89.95437384	      0.00000000	      0.00000000	     -9.78205635	     11.69535358	      9.40905673	      8.90297739	     89.95437384	      0.00000000	      0.00000000
      0.63000000	     -0.72075868	      2.73534432	      2.38453035	     -0.45107883	      0.94247085	      1.51557475	     -8.99995099	     -5.11412017	    -21.65705952	    -15.88305080	     -0.27721153	     10.82214805	      3.58160053	    -13.50720866	     23.58287281	      3.30002407	     20.48369273	     -8.61368785	     -0.15033721	     -2.92289982	     -1.84272690	      5.88125387	     -6.17640830	     -4.05724066	      6.99547825	     13.60028041	    -14.92315739	    -16.62040174	     26.20776549	     89.95437384	      0.00000000	      0.00000000	    -10.23906976	     11.63708407	      9.38905772	      9.12600887	     89.95437384	      0.00000000	      0.00000000
      0.64000000	     -0.42544153	      3.10756492	      2.15612207	     -0.44151786	      0.94214722	      1.51333000	     -9.94642646	     -5.81334677	    -22.02838684	    -15.97204392	     -0.27876475	     10.79659863	      4.41250458	    -13.73449909	     23.24003596	      2.86250087	     20.54897684	     -9.41862345	     -0.16438599	     -2.56185456	     -0.95297249	      5.58286293	     -6.31889321	     -4.46206704	      7.29499865	     13.56164845	    -14.79754753	    -16.95058243	     26.28211046	     89.95437384	      0.00000000	      0.00000000	    -10.35478899	     11.61234057	      9.53882567	      8.90346607	     89.95437384	      0.00000000	      0.00000000
      0.65000000	     -0.57959243	      3.08116074	      1.98667162	     -0.43210785	      0.94097675	      1.51114765	    -10.17220973	     -6.03706908	    -21.76394670	    -16.43600117	     -0.28686234	     10.57615251	      4.25141830	    -13.48053070	     23.30868588	      2.80315819	     20.12964568	     -9.99558026	     -0.17445579	     -2.63870411	     -0.85735588	      5.48226664	     -5.94272418	     -4.43570429	      7.42559041	     13.40303273	    -14.68090401	    -16.86646589	     26.56897043	     89.95437384	      0.00000000	      0.00000000	    -10.83588427	     11.51635605	      9.50325775	      9.13197233	     89.95437384	      0.00000000	      0.00000000
      0.66000000	     -0.33161183	      3.77045087	      1.88593882	     -0.42212305	      0.94061060	      1.50787819	    -10.99785414	     -7.36102115	    -23.12212313	    -16.89263708	     -0.29483214	     10.68557823	      6.47400101	    -14.63192166	     22.68916672	      1.72051096	     19.23700615	    -10.40168685	     -0.18154368	     -2.36482708	      1.14032516	      5.21757907	     -5.99810366	     -5.13402787	      7.46638654	     13.25901931	    -14.55191991	    -16.81966456	     26.63606929	     89.95437384	      0.00000000	      0.00000000	    -10.99308840	     11.46841605	      9.84814952	      8.86762227	     89.95437384	      0.00000000	      0.00000000
      0.67000000	     -0.50261888	      3.72095831	      1.73652835	     -0.41250273	      0.93943845	      1.50530255	    -11.20583682	     -7.57917039	    -22.79518855	    -17.37548636	     -0.30325945	     10.41405625	      6.22838042	    -14.33693278	     22.66584181	      1.64486215	     18.84734485	    -11.02436397	     -0.19241145	     -2.45277998	      1.14766565	      5.12080455	     -5.57060281	     -5.06307785	      7.58454920	     13.02409361	    -14.45621576	    -16.74604237	     26.90025632	     89.95437384	      0.00000000	      0.00000000	    -11.44350156	     11.37994001	      9.82692173	      9.11582609	     89.95437384	      0.00000000	      0.00000000
      0.68000000	     -0.14590594	      4.04815441	      1.48589524	     -0.40206851	      0.93916601	      1.50256790	    -12.23668026	     -8.29252221	    -23.27545570	    -17.41579305	     -0.30396293	      9.97234797	      6.68037952	    -14.36854482	     21.94228922	      1.18419046	     18.81778804	    -11.75532982	     -0.20516921	     -1.96627881	      1.57444685	      4.98065297	     -5.68723354	     -5.39294795	      7.80569475	     12.75339264	    -14.31500649	    -16.76089295	     27.06648932	     89.95437384	      0.00000000	      0.00000000	    -11.50719748	     11.32229747	      9.80608321	      8.67764577	     89.95437384	      0.00000000	      0.00000000
      0.69000000	     -0.32326128	      3.97443385	      1.37076817	     -0.39199014	      0.93792233	      1.49954153	    -12.45577698	     -8.52221784	    -22.93919205	    -17.92004727	     -0.31276383	      9.70506888	      6.45356289	    -14.08476141	     21.80534701	      1.09606589	     18.42622780	    -12.32052730	     -0.21503377	     -2.08137831	      1.54857544	      4.90039118	     -5.18673568	     -5.26664385	      7.89074922	     12.40120430	    -14.22740977	    -16.67329995	     27.27219518	     89.95437384	      0.00000000	      0.00000000	    -11.96423670	     11.19609456	      9.78773735	      8.93184377	     89.95437384	      0.00000000	      0.00000000
      0.70000000	      0.14069775	      4.75146264	      1.14056972	     -0.38101835	      0.93785380	      1.49593578	    -13.57418240	    -10.00247944	    -24.20483072	    -18.28813109	     -0.31918810	      9.25206014	      8.42761261	    -14.70324591	     20.62680963	      0.07428345	     18.86379327	    -12.21722646	     -0.21323083	     -3.64397658	      1.82719902	      5.05938233	     -5.36477986	     -6.05733167	      7.98944087	     12.04373174	    -14.12189129	    -16.31250373	     27.44799558	     89.95437384	      0.00000000	      0.00000000	    -12.07476964	     11.11616728	     10.41003109	      8.64785070	     89.95437384	      0.00000000	      0.00000000
      0.71000000	      0.42336464	      5.26569782	      0.89052700	     -0.37039357	      0.93765701	      1.49262145	    -14.34395376	    -11.04170279	    -24.46027035	    -18.77427529	     -0.32767292	      8.66864864	      8.77749553	    -14.79470880	     19.76845910	     -0.48239554	     19.87169629	    -11.85064037	     -0.20683269	     -6.23129070	      1.66603004	      5.30753604	     -5.36256749	     -6.57933013	      8.14734847	     11.67944783	    -13.96143162	    -16.26075933	     27.58857712	     89.95437384	      0.00000000	      0.00000000	    -12.28755650	     11.06753802	     10.35501496	      8.61867130	     89.95437384	      0.00000000	      0.00000000
      0.72000000	      0.66800065	      5.83461236	      0.65321840	     -0.35980946	      0.93755857	      1.48910674	    -15.01295352	    -12.18309834	    -24.70867702	    -19.35376114	     -0.33778685	      7.91164517	      9.21396672	    -14.74967901	     18.98237002	     -1.12985022	     20.28299998	    -11.46464283	     -0.20009576	     -7.90411516	      1.29390030	      5.00251937	     -5.32391830	     -7.15702582	      8.26407911	     11.36731449	    -13.77364625	    -16.33920086	     27.66326492	     89.95437384	      0.00000000	      0.00000000	    -12.38791095	     11.00152797	     10.48010009	      8.48136310	     89.95437384	      0.00000000	      0.00000000
